STARTFONT 2.1
FONT -WRI-Mathematica1-Bold-R-Normal--24-240-75-75-p-140-Adobe-FontSpecific
SIZE 24 75 75
FONTBOUNDINGBOX 40 27 -2 -5
STARTPROPERTIES 16
FOUNDRY "WRI"
FAMILY_NAME "Mathematica1"
WEIGHT_NAME "Bold"
SLANT "R"
SETWIDTH_NAME "Normal"
PIXEL_SIZE 24
POINT_SIZE 240
RESOLUTION_X 75
RESOLUTION_Y 75
SPACING "p"
AVERAGE_WIDTH 140
CHARSET_REGISTRY "Adobe"
CHARSET_ENCODING "FontSpecific"
FONT_DESCENT 5
FONT_ASCENT 22
DEFAULT_CHAR 32
ENDPROPERTIES
CHARS 224
STARTCHAR Space
ENCODING 32
SWIDTH 189 0
DWIDTH 5 0
BBX 0 0 0 0
BITMAP
ENDCHAR
STARTCHAR Exclamation
ENCODING 33
SWIDTH 333 0
DWIDTH 8 0
BBX 4 16 2 0
BITMAP
60
f0
f0
f0
f0
f0
f0
f0
60
60
60
60
00
60
f0
60
ENDCHAR
STARTCHAR ForAll
ENCODING 34
SWIDTH 627 0
DWIDTH 15 0
BBX 13 17 1 0
BITMAP
8038
4070
4070
4070
20e0
20e0
20e0
1fc0
11c0
13c0
0b80
0b80
0f80
0700
0700
0700
0200
ENDCHAR
STARTCHAR NumberSign
ENCODING 35
SWIDTH 701 0
DWIDTH 17 0
BBX 16 16 1 0
BITMAP
030c
071c
0618
0618
7fff
7fff
0e38
0c30
0c30
fffe
fffe
1860
1860
38e0
30c0
30c0
ENDCHAR
STARTCHAR Exists
ENCODING 36
SWIDTH 627 0
DWIDTH 15 0
BBX 13 17 1 0
BITMAP
fff8
0038
0038
0038
0038
0038
0038
3ff8
0038
0038
0038
0038
0038
0038
0038
0038
fff8
ENDCHAR
STARTCHAR Percent
ENCODING 37
SWIDTH 927 0
DWIDTH 22 0
BBX 19 17 1 0
BITMAP
1e0600
390c00
711c00
f11800
e13800
e23000
e27000
e46000
78e3c0
00c720
01ce20
019e20
039c20
031c40
071c40
061c80
0c0f00
ENDCHAR
STARTCHAR Ampersand
ENCODING 38
SWIDTH 833 0
DWIDTH 20 0
BBX 17 16 1 0
BITMAP
07c000
0c7000
1c3000
1c3000
1e2000
0fc000
0f0f80
1f8200
27c600
63c400
e1e800
f0f000
f0f800
f8f880
7fbf00
3e1e00
ENDCHAR
STARTCHAR SmallMember
ENCODING 39
SWIDTH 501 0
DWIDTH 12 0
BBX 9 11 1 0
BITMAP
fc00
0700
0700
0380
0380
7f80
0380
0300
0700
0e00
f800
ENDCHAR
STARTCHAR LParen
ENCODING 40
SWIDTH 349 0
DWIDTH 8 0
BBX 6 21 1 -4
BITMAP
04
0c
18
30
30
60
60
e0
e0
e0
e0
e0
e0
e0
60
60
30
30
18
0c
04
ENDCHAR
STARTCHAR RParen
ENCODING 41
SWIDTH 349 0
DWIDTH 8 0
BBX 6 21 1 -4
BITMAP
80
c0
60
30
30
18
18
1c
1c
1c
1c
1c
1c
1c
18
18
38
30
60
c0
80
ENDCHAR
STARTCHAR Star
ENCODING 42
SWIDTH 507 0
DWIDTH 12 0
BBX 9 10 2 0
BITMAP
1c00
1c00
dd80
eb80
3f00
7e00
eb80
dd80
1c00
1c00
ENDCHAR
STARTCHAR Plus
ENCODING 43
SWIDTH 683 0
DWIDTH 16 0
BBX 14 13 1 -1
BITMAP
0300
0300
0300
0300
0300
fffc
fffc
0300
0300
0300
0300
0300
0300
ENDCHAR
STARTCHAR Comma
ENCODING 44
SWIDTH 250 0
DWIDTH 6 0
BBX 5 8 0 -4
BITMAP
30
78
78
38
18
10
60
80
ENDCHAR
STARTCHAR Minus
ENCODING 45
SWIDTH 676 0
DWIDTH 16 0
BBX 14 2 1 5
BITMAP
fffc
fffc
ENDCHAR
STARTCHAR Period
ENCODING 46
SWIDTH 250 0
DWIDTH 6 0
BBX 4 4 1 0
BITMAP
60
f0
f0
60
ENDCHAR
STARTCHAR Slash
ENCODING 47
SWIDTH 358 0
DWIDTH 9 0
BBX 9 21 0 -4
BITMAP
0180
0380
0300
0300
0700
0600
0600
0e00
0c00
0c00
1c00
1800
1800
3800
3000
3000
7000
6000
6000
e000
c000
ENDCHAR
STARTCHAR Zero
ENCODING 48
SWIDTH 500 0
DWIDTH 12 0
BBX 10 17 1 0
BITMAP
1e00
3300
6180
6180
6180
e1c0
e1c0
e1c0
e1c0
e1c0
e1c0
e1c0
6180
6180
6180
3300
1e00
ENDCHAR
STARTCHAR One
ENCODING 49
SWIDTH 500 0
DWIDTH 12 0
BBX 9 17 1 0
BITMAP
0c00
7c00
fc00
1c00
1c00
1c00
1c00
1c00
1c00
1c00
1c00
1c00
1c00
1c00
1c00
3c00
ff80
ENDCHAR
STARTCHAR Two
ENCODING 50
SWIDTH 500 0
DWIDTH 12 0
BBX 11 17 0 0
BITMAP
1f00
3f80
7fc0
43c0
81c0
01c0
01c0
0180
0380
0300
0600
0c00
1820
3060
7fe0
ffc0
ffc0
ENDCHAR
STARTCHAR Three
ENCODING 51
SWIDTH 500 0
DWIDTH 12 0
BBX 11 17 0 0
BITMAP
0f00
1f80
23c0
41c0
01c0
0180
0700
0f80
07c0
01e0
01e0
00e0
00e0
00c0
e0c0
f100
7e00
ENDCHAR
STARTCHAR Four
ENCODING 52
SWIDTH 500 0
DWIDTH 12 0
BBX 11 17 0 0
BITMAP
00c0
01c0
03c0
05c0
05c0
09c0
11c0
21c0
21c0
41c0
81c0
ffe0
ffe0
ffe0
01c0
01c0
01c0
ENDCHAR
STARTCHAR Five
ENCODING 53
SWIDTH 500 0
DWIDTH 12 0
BBX 10 16 1 0
BITMAP
1fc0
1fc0
1f80
2000
2000
3c00
7f00
7f80
0fc0
03c0
01c0
00c0
00c0
e080
f100
7e00
ENDCHAR
STARTCHAR Six
ENCODING 54
SWIDTH 500 0
DWIDTH 12 0
BBX 11 16 1 0
BITMAP
00e0
0780
0e00
1800
3000
7000
7f00
e1c0
e1e0
e0e0
e0e0
e0e0
60e0
60c0
31c0
1f00
ENDCHAR
STARTCHAR Seven
ENCODING 55
SWIDTH 500 0
DWIDTH 12 0
BBX 11 16 0 0
BITMAP
7fe0
7fc0
ffc0
c0c0
8180
0180
0180
0300
0300
0300
0600
0600
0e00
0c00
0c00
1c00
ENDCHAR
STARTCHAR Eight
ENCODING 56
SWIDTH 500 0
DWIDTH 12 0
BBX 11 17 1 0
BITMAP
1f80
71c0
e0e0
e0e0
f0e0
f9c0
7f00
3f00
1f80
37c0
73e0
e1e0
e0e0
e0e0
e0c0
71c0
1f00
ENDCHAR
STARTCHAR Nine
ENCODING 57
SWIDTH 500 0
DWIDTH 12 0
BBX 11 17 1 0
BITMAP
1f00
3180
61c0
e0c0
e0e0
e0e0
e0e0
e0e0
70e0
78e0
1fc0
01c0
0180
0300
0e00
3c00
e000
ENDCHAR
STARTCHAR Colon
ENCODING 58
SWIDTH 333 0
DWIDTH 8 0
BBX 4 11 2 0
BITMAP
60
f0
f0
60
00
00
00
60
f0
f0
60
ENDCHAR
STARTCHAR SemiColon
ENCODING 59
SWIDTH 333 0
DWIDTH 8 0
BBX 5 15 1 -4
BITMAP
30
78
78
30
00
00
00
30
78
78
78
18
30
60
80
ENDCHAR
STARTCHAR Less
ENCODING 60
SWIDTH 681 0
DWIDTH 16 0
BBX 14 13 1 0
BITMAP
0004
003c
00fc
03e0
1f80
7c00
f000
7c00
1f80
03e0
00fc
003c
0004
ENDCHAR
STARTCHAR Equal
ENCODING 61
SWIDTH 677 0
DWIDTH 16 0
BBX 14 8 1 2
BITMAP
fffc
fffc
0000
0000
0000
0000
fffc
fffc
ENDCHAR
STARTCHAR Greater
ENCODING 62
SWIDTH 681 0
DWIDTH 16 0
BBX 14 13 1 0
BITMAP
8000
f000
fc00
1f00
07e0
00f8
003c
00f8
07e0
1f00
fc00
f000
8000
ENDCHAR
STARTCHAR Question
ENCODING 63
SWIDTH 500 0
DWIDTH 12 0
BBX 9 17 2 0
BITMAP
3e00
4700
c380
e380
e380
0380
0700
0600
0c00
0800
0800
0000
0000
1800
3c00
3c00
1800
ENDCHAR
STARTCHAR TildeFullEqual
ENCODING 64
SWIDTH 675 0
DWIDTH 16 0
BBX 14 14 1 -1
BITMAP
3c04
7e0c
678c
c1f8
80f0
0000
0000
fffc
fffc
0000
0000
0000
fffc
fffc
ENDCHAR
STARTCHAR CapAlpha
ENCODING 65
SWIDTH 760 0
DWIDTH 18 0
BBX 18 17 0 0
BITMAP
008000
01c000
01c000
01e000
03e000
02e000
04f000
047000
047800
083800
0ffc00
101c00
101c00
300e00
200f00
600f00
f81fc0
ENDCHAR
STARTCHAR CapBeta
ENCODING 66
SWIDTH 658 0
DWIDTH 16 0
BBX 14 17 1 0
BITMAP
ffc0
3870
3838
3838
3838
3838
3870
3fc0
3878
383c
381c
381c
381c
381c
381c
3878
ffe0
ENDCHAR
STARTCHAR CapChi
ENCODING 67
SWIDTH 769 0
DWIDTH 18 0
BBX 17 17 0 0
BITMAP
ff1f80
7c0600
3e0c00
1e0800
0f1000
072000
07c000
03c000
01e000
01e000
02f000
047800
0c3800
083c00
101e00
701f00
fc3f80
ENDCHAR
STARTCHAR CapDelta
ENCODING 68
SWIDTH 677 0
DWIDTH 16 0
BBX 15 17 0 0
BITMAP
0100
0380
0380
0380
05c0
05c0
09e0
08e0
18f0
1070
1070
2078
2038
603c
401c
7ffc
fffe
ENDCHAR
STARTCHAR CapEpsilon
ENCODING 69
SWIDTH 634 0
DWIDTH 15 0
BBX 14 17 0 0
BITMAP
fff8
3818
3808
3800
3800
3820
3860
3fe0
3860
3820
3800
3800
3800
3804
380c
3818
fff8
ENDCHAR
STARTCHAR CapPhi
ENCODING 70
SWIDTH 677 0
DWIDTH 16 0
BBX 15 17 0 0
BITMAP
0fe0
0380
0380
0fe0
3bb8
739c
e38e
e38e
e38e
e38e
e38e
739c
3bb8
0fe0
0380
0380
0fe0
ENDCHAR
STARTCHAR CapGamma
ENCODING 71
SWIDTH 592 0
DWIDTH 14 0
BBX 13 17 0 0
BITMAP
fff8
3818
3808
3800
3800
3800
3800
3800
3800
3800
3800
3800
3800
3800
3800
3800
fe00
ENDCHAR
STARTCHAR CapEta
ENCODING 72
SWIDTH 744 0
DWIDTH 18 0
BBX 17 17 0 0
BITMAP
fe3f80
380e00
380e00
380e00
380e00
380e00
380e00
3ffe00
380e00
380e00
380e00
380e00
380e00
380e00
380e00
380e00
fe3f80
ENDCHAR
STARTCHAR CapIota
ENCODING 73
SWIDTH 351 0
DWIDTH 8 0
BBX 7 17 0 0
BITMAP
fe
38
38
38
38
38
38
38
38
38
38
38
38
38
38
38
fe
ENDCHAR
STARTCHAR CurlyTheta
ENCODING 74
SWIDTH 545 0
DWIDTH 13 0
BBX 13 17 0 0
BITMAP
01c0
0260
0470
0470
0470
0470
0270
19f0
70f0
f0f8
e0e8
e1e0
e1c0
e180
6380
7300
3c00
ENDCHAR
STARTCHAR CapKappa
ENCODING 75
SWIDTH 752 0
DWIDTH 18 0
BBX 17 17 0 0
BITMAP
fe7e00
383800
383000
384000
388000
390000
3a0000
3e0000
3f0000
3f8000
3bc000
39e000
38f000
387800
383c00
383e00
feff80
ENDCHAR
STARTCHAR CapLambda
ENCODING 76
SWIDTH 753 0
DWIDTH 18 0
BBX 17 17 0 0
BITMAP
008000
01c000
01c000
01e000
03e000
03e000
027000
067000
047800
043800
0c3c00
081c00
081c00
180e00
100e00
300f00
fc1f80
ENDCHAR
STARTCHAR CapMu
ENCODING 77
SWIDTH 883 0
DWIDTH 21 0
BBX 20 17 0 0
BITMAP
f001f0
3801c0
3803c0
3c03c0
3c03c0
3e05c0
2e05c0
2f05c0
2709c0
2789c0
2391c0
2391c0
21d1c0
21e1c0
20e1c0
30e1c0
f847f0
ENDCHAR
STARTCHAR CapNu
ENCODING 78
SWIDTH 749 0
DWIDTH 18 0
BBX 16 17 1 0
BITMAP
f01f
7804
3c04
3e04
3e04
2f04
2784
23c4
23c4
21e4
20f4
207c
203c
201c
201c
200c
f804
ENDCHAR
STARTCHAR CapOmicron
ENCODING 79
SWIDTH 733 0
DWIDTH 18 0
BBX 17 17 0 0
BITMAP
07f000
1c1c00
380e00
700600
700700
e00300
e00380
e00380
e00380
e00380
e00380
600380
700700
300600
380e00
0c1800
07e000
ENDCHAR
STARTCHAR CapPi
ENCODING 80
SWIDTH 733 0
DWIDTH 18 0
BBX 17 17 0 0
BITMAP
ffff80
380e00
380e00
380e00
380e00
380e00
380e00
380e00
380e00
380e00
380e00
380e00
380e00
380e00
380e00
380e00
fe3f80
ENDCHAR
STARTCHAR CapTheta
ENCODING 81
SWIDTH 731 0
DWIDTH 18 0
BBX 17 17 0 0
BITMAP
07f000
1c1c00
380e00
700600
700700
e00300
e41380
e7f380
e7f380
e7f380
e41380
600380
700700
300600
380e00
0c1800
07e000
ENDCHAR
STARTCHAR CapRho
ENCODING 82
SWIDTH 590 0
DWIDTH 14 0
BBX 13 17 0 0
BITMAP
ffc0
38e0
3870
3838
3838
3838
3838
3870
38f0
3fc0
3800
3800
3800
3800
3800
3800
fe00
ENDCHAR
STARTCHAR CapSigma
ENCODING 83
SWIDTH 610 0
DWIDTH 15 0
BBX 14 17 0 0
BITMAP
7ff8
3ff8
1818
1c08
0e08
0600
0700
0300
0380
0300
0300
0604
0c04
180c
3ffc
7ffc
fffc
ENDCHAR
STARTCHAR CapTau
ENCODING 84
SWIDTH 620 0
DWIDTH 15 0
BBX 13 17 1 0
BITMAP
fff8
c718
8708
8708
0700
0700
0700
0700
0700
0700
0700
0700
0700
0700
0700
0700
1fc0
ENDCHAR
STARTCHAR CapUpsilon
ENCODING 85
SWIDTH 684 0
DWIDTH 16 0
BBX 16 17 0 0
BITMAP
700e
b819
1c30
0c60
0e40
0640
06c0
0380
0380
0380
0380
0380
0380
0380
0380
0380
0fe0
ENDCHAR
STARTCHAR FinalSigma
ENCODING 86
SWIDTH 513 0
DWIDTH 12 0
BBX 11 15 1 -4
BITMAP
0fc0
31e0
70e0
6060
e000
e000
f000
f800
7e00
3f80
0fc0
03c0
01c0
0380
1f00
ENDCHAR
STARTCHAR CapOmega
ENCODING 87
SWIDTH 748 0
DWIDTH 18 0
BBX 17 16 0 0
BITMAP
03e000
0c1800
180c00
380e00
700700
700700
700700
700700
700700
300600
380600
180c00
180c00
8c1880
fc1f80
fe3f80
ENDCHAR
STARTCHAR CapXi
ENCODING 88
SWIDTH 615 0
DWIDTH 15 0
BBX 13 17 1 0
BITMAP
fff8
fff8
fff8
c018
8008
0000
2020
3fe0
3fe0
3fe0
2020
0000
8008
c018
fff8
fff8
fff8
ENDCHAR
STARTCHAR CapPsi
ENCODING 89
SWIDTH 647 0
DWIDTH 16 0
BBX 15 17 0 0
BITMAP
0fe0
c386
638c
739c
739c
739c
739c
739c
3bb8
1ff0
0380
0380
0380
0380
0380
0380
0fe0
ENDCHAR
STARTCHAR CapZeta
ENCODING 90
SWIDTH 661 0
DWIDTH 16 0
BBX 15 17 0 0
BITMAP
7ffc
603c
4038
4070
00f0
01e0
01c0
0380
0780
0700
0e00
1e00
3c00
3802
7006
f00c
fffc
ENDCHAR
STARTCHAR LBracket
ENCODING 91
SWIDTH 359 0
DWIDTH 9 0
BBX 6 20 2 -4
BITMAP
fc
e0
e0
e0
e0
e0
e0
e0
e0
e0
e0
e0
e0
e0
e0
e0
e0
e0
e0
fc
ENDCHAR
STARTCHAR Therefore
ENCODING 92
SWIDTH 629 0
DWIDTH 15 0
BBX 11 11 1 0
BITMAP
0e00
0e00
0e00
0000
0000
0000
0000
0000
e0e0
e0e0
e0e0
ENDCHAR
STARTCHAR RBracket
ENCODING 93
SWIDTH 359 0
DWIDTH 9 0
BBX 6 20 1 -4
BITMAP
fc
1c
1c
1c
1c
1c
1c
1c
1c
1c
1c
1c
1c
1c
1c
1c
1c
1c
1c
fc
ENDCHAR
STARTCHAR Perpendicular
ENCODING 94
SWIDTH 752 0
DWIDTH 18 0
BBX 14 13 2 0
BITMAP
0300
0300
0300
0300
0300
0300
0300
0300
0300
0300
0300
fffc
fffc
ENDCHAR
STARTCHAR Underbar
ENCODING 95
SWIDTH 580 0
DWIDTH 14 0
BBX 12 2 1 -4
BITMAP
fff0
fff0
ENDCHAR
STARTCHAR Hat
ENCODING 96
SWIDTH 371 0
DWIDTH 9 0
BBX 9 5 0 0
BITMAP
1c00
3e00
3e00
6300
c180
ENDCHAR
STARTCHAR Alpha
ENCODING 97
SWIDTH 630 0
DWIDTH 15 0
BBX 14 11 1 0
BITMAP
0f80
18cc
30d8
70d0
60f0
e0e0
e0c0
e180
e188
7390
3ce0
ENDCHAR
STARTCHAR Beta
ENCODING 98
SWIDTH 569 0
DWIDTH 14 0
BBX 15 21 -2 -5
BITMAP
007c
01c6
0386
0386
0706
070c
07f0
0f38
0e1c
0e1c
0e1c
1c1c
1c18
1c38
3e70
3be0
3800
3800
7000
7000
f000
ENDCHAR
STARTCHAR Chi
ENCODING 99
SWIDTH 605 0
DWIDTH 15 0
BBX 16 13 -2 -4
BITMAP
0f03
0706
070c
0398
03a0
03c0
03c0
03c0
0dc0
19c0
31c0
40e8
80f0
ENDCHAR
STARTCHAR Delta
ENCODING 100
SWIDTH 505 0
DWIDTH 12 0
BBX 11 16 0 0
BITMAP
03c0
0c60
0c60
0c00
0600
0700
1b80
31c0
71c0
e1c0
e1c0
e1c0
e180
e380
7300
3c00
ENDCHAR
STARTCHAR Epsilon
ENCODING 101
SWIDTH 411 0
DWIDTH 10 0
BBX 9 11 1 0
BITMAP
0f80
3800
7000
6000
ff00
f800
e000
e000
7000
7000
1f80
ENDCHAR
STARTCHAR Phi
ENCODING 102
SWIDTH 590 0
DWIDTH 14 0
BBX 13 21 1 -5
BITMAP
0020
00e0
00e0
01c0
01c0
07e0
1db0
3bb8
7338
6338
e338
e670
e670
e6e0
75c0
3f00
0c00
0800
0800
1800
1000
ENDCHAR
STARTCHAR Gamma
ENCODING 103
SWIDTH 589 0
DWIDTH 14 0
BBX 14 16 -1 -5
BITMAP
1c1c
7e18
c738
8730
0360
0360
03c0
0280
0300
0200
0600
0c00
1c00
1800
3800
3000
ENDCHAR
STARTCHAR Eta
ENCODING 104
SWIDTH 540 0
DWIDTH 13 0
BBX 12 16 1 -5
BITMAP
79e0
be70
3870
3870
38e0
70e0
70e0
71c0
71c0
e1c0
e3c0
0380
0380
0380
0780
0780
ENDCHAR
STARTCHAR Iota
ENCODING 105
SWIDTH 307 0
DWIDTH 7 0
BBX 6 11 1 0
BITMAP
38
38
70
70
70
f0
e0
e0
e4
e8
f0
ENDCHAR
STARTCHAR CurlyPhi
ENCODING 106
SWIDTH 605 0
DWIDTH 15 0
BBX 13 16 1 -5
BITMAP
10f0
21f0
6398
4318
c318
c618
c630
e670
ffe0
7fc0
3f00
1c00
1800
1800
3800
3800
ENDCHAR
STARTCHAR Kappa
ENCODING 107
SWIDTH 475 0
DWIDTH 11 0
BBX 12 11 0 0
BITMAP
1c30
1cf0
3880
3980
3b00
3e00
7f00
7700
7780
73c0
e1e0
ENDCHAR
STARTCHAR Lambda
ENCODING 108
SWIDTH 523 0
DWIDTH 13 0
BBX 12 16 1 0
BITMAP
3c00
0e00
0e00
0600
0700
0700
0700
0700
0f00
1700
1700
3700
2300
6380
e390
e1e0
ENDCHAR
STARTCHAR Mu
ENCODING 109
SWIDTH 569 0
DWIDTH 14 0
BBX 14 16 -1 -5
BITMAP
0e1c
0e1c
1c38
1c38
1c38
1c38
3870
3870
3870
3df4
7678
7000
7000
7000
e000
e000
ENDCHAR
STARTCHAR Nu
ENCODING 110
SWIDTH 473 0
DWIDTH 11 0
BBX 11 11 0 0
BITMAP
10e0
f8e0
3cc0
3cc0
1c80
1d00
1e00
1c00
1c00
3800
3000
ENDCHAR
STARTCHAR Omicron
ENCODING 111
SWIDTH 518 0
DWIDTH 12 0
BBX 11 11 0 0
BITMAP
0f80
19c0
30e0
70e0
60e0
e0e0
e0c0
e1c0
e180
7300
3e00
ENDCHAR
STARTCHAR Pi
ENCODING 112
SWIDTH 556 0
DWIDTH 13 0
BBX 14 11 0 0
BITMAP
1ffc
7ffc
c660
0ee0
0cc0
1cc0
19c0
39c0
71e0
f1e0
e0e0
ENDCHAR
STARTCHAR Theta
ENCODING 113
SWIDTH 479 0
DWIDTH 12 0
BBX 11 17 1 0
BITMAP
0380
0cc0
1ce0
18e0
38e0
70e0
70e0
71e0
ffe0
e1c0
e1c0
e3c0
e380
e380
e300
6600
3c00
ENDCHAR
STARTCHAR Rho
ENCODING 114
SWIDTH 549 0
DWIDTH 13 0
BBX 14 16 -1 -5
BITMAP
01f0
0338
061c
0e1c
0c1c
1c1c
1c18
1c38
3c30
3e60
3fc0
3000
7000
7000
7000
e000
ENDCHAR
STARTCHAR Sigma
ENCODING 115
SWIDTH 701 0
DWIDTH 17 0
BBX 16 11 1 0
BITMAP
07ff
19ff
30e0
70e0
e0e0
e0e0
e0c0
e1c0
e180
7300
3e00
ENDCHAR
STARTCHAR Tau
ENCODING 116
SWIDTH 512 0
DWIDTH 12 0
BBX 12 11 0 0
BITMAP
3ff0
7fe0
8600
0e00
0c00
0c00
0c00
1800
1c00
1e00
0e00
ENDCHAR
STARTCHAR Upsilon
ENCODING 117
SWIDTH 554 0
DWIDTH 13 0
BBX 12 11 0 0
BITMAP
7810
fc30
1c70
1c70
3870
3860
7060
70c0
7080
7100
3e00
ENDCHAR
STARTCHAR CurlyPi
ENCODING 118
SWIDTH 854 0
DWIDTH 21 0
BBX 19 11 1 0
BITMAP
1fffe0
7fffe0
4c0380
9c0380
186380
386380
384780
384700
384700
1cce00
0f3c00
ENDCHAR
STARTCHAR Omega
ENCODING 119
SWIDTH 731 0
DWIDTH 18 0
BBX 16 11 1 0
BITMAP
0c04
1806
3007
7187
7187
e107
e10f
e10e
e31c
7318
3cf0
ENDCHAR
STARTCHAR Xi
ENCODING 120
SWIDTH 477 0
DWIDTH 11 0
BBX 12 21 0 -5
BITMAP
0230
0270
03e0
0600
0c00
1c00
1c00
1cc0
07c0
18c0
7000
e000
e000
e000
fe00
7f00
0300
0300
0300
1600
3c00
ENDCHAR
STARTCHAR Psi
ENCODING 121
SWIDTH 648 0
DWIDTH 16 0
BBX 15 21 1 -5
BITMAP
0060
00e0
01c0
01c0
01c0
e18e
739c
73bc
7338
7738
e778
e670
e670
eee0
6dc0
3f80
0c00
0800
1800
1800
1000
ENDCHAR
STARTCHAR Zeta
ENCODING 122
SWIDTH 453 0
DWIDTH 11 0
BBX 12 21 0 -5
BITMAP
0200
0470
04f0
07c0
0100
0200
0400
0800
1800
3000
7000
6000
e000
e000
ff00
7f80
0180
0180
0180
1300
3c00
ENDCHAR
STARTCHAR LBrace
ENCODING 123
SWIDTH 372 0
DWIDTH 9 0
BBX 7 20 1 -4
BITMAP
0e
1c
38
38
38
38
38
38
30
e0
30
38
38
38
38
38
38
38
1c
0e
ENDCHAR
STARTCHAR VertBar
ENCODING 124
SWIDTH 220 0
DWIDTH 5 0
BBX 3 16 1 0
BITMAP
e0
e0
e0
e0
e0
e0
e0
e0
e0
e0
e0
e0
e0
e0
e0
e0
ENDCHAR
STARTCHAR RBrace
ENCODING 125
SWIDTH 372 0
DWIDTH 9 0
BBX 7 20 1 -4
BITMAP
e0
70
38
38
38
38
38
38
18
0e
18
38
38
38
38
38
38
38
70
e0
ENDCHAR
STARTCHAR Tilde
ENCODING 126
SWIDTH 667 0
DWIDTH 16 0
BBX 14 5 1 4
BITMAP
3c04
7e0c
678c
c1f8
80f0
ENDCHAR
STARTCHAR DEL
ENCODING 127
SWIDTH 189 0
DWIDTH 5 0
BBX 0 0 0 0
BITMAP
ENDCHAR
STARTCHAR FractionBarExt
ENCODING 128
SWIDTH 165 0
DWIDTH 4 0
BBX 4 2 0 5
BITMAP
f0
f0
ENDCHAR
STARTCHAR EscapeChar
ENCODING 129
SWIDTH 297 0
DWIDTH 7 0
BBX 5 14 1 -3
BITMAP
f8
f8
00
00
00
00
f8
f8
00
00
00
00
f8
f8
ENDCHAR
STARTCHAR SelectPlaceholder
ENCODING 130
SWIDTH 595 0
DWIDTH 14 0
BBX 11 11 1 0
BITMAP
ffe0
ffe0
ffe0
ffe0
ffe0
ffe0
ffe0
ffe0
ffe0
ffe0
ffe0
ENDCHAR
STARTCHAR Placeholder
ENCODING 131
SWIDTH 589 0
DWIDTH 14 0
BBX 11 11 1 0
BITMAP
ffe0
8020
8020
8020
8020
8020
8020
8020
8020
8020
ffe0
ENDCHAR
STARTCHAR Continuation
ENCODING 132
SWIDTH 533 0
DWIDTH 13 0
BBX 10 16 1 0
BITMAP
c000
c000
0000
0000
0000
0000
0000
0c00
0c00
0000
0000
0000
0000
0000
00c0
00c0
ENDCHAR
STARTCHAR Skeleton
ENCODING 133
SWIDTH 372 0
DWIDTH 9 0
BBX 7 5 1 3
BITMAP
fe
fe
fe
fe
fe
ENDCHAR
STARTCHAR LSkeleton
ENCODING 134
SWIDTH 1000 0
DWIDTH 24 0
BBX 21 13 2 0
BITMAP
000808
003838
01f1f0
07c7c0
1f1f00
fcfc00
f0f000
fcfc00
1f1f00
07c7c0
01f1f0
003838
000808
ENDCHAR
STARTCHAR RSkeleton
ENCODING 135
SWIDTH 1000 0
DWIDTH 24 0
BBX 21 13 1 0
BITMAP
808000
e0e000
7c7c00
1f1f00
07c7c0
01f9f8
007878
01f9f8
07c7c0
1f1f00
7c7c00
e0e000
808000
ENDCHAR
STARTCHAR Spacer
ENCODING 136
SWIDTH 250 0
DWIDTH 6 0
BBX 6 3 0 -3
BITMAP
84
84
fc
ENDCHAR
STARTCHAR Cross
ENCODING 137
SWIDTH 522 0
DWIDTH 13 0
BBX 11 10 1 1
BITMAP
60c0
71c0
3b80
1f00
0e00
1f00
3b80
71c0
e0e0
4040
ENDCHAR
STARTCHAR DblEqual
ENCODING 138
SWIDTH 856 0
DWIDTH 21 0
BBX 19 8 1 2
BITMAP
ffbfe0
ffbfe0
000000
000000
000000
000000
ffbfe0
ffbfe0
ENDCHAR
STARTCHAR Grave
ENCODING 139
SWIDTH 262 0
DWIDTH 6 0
BBX 6 5 0 1
BITMAP
c0
e0
70
18
0c
ENDCHAR
STARTCHAR Acute
ENCODING 140
SWIDTH 262 0
DWIDTH 6 0
BBX 6 5 0 1
BITMAP
0c
1c
38
60
c0
ENDCHAR
STARTCHAR DoubleAcute
ENCODING 141
SWIDTH 467 0
DWIDTH 11 0
BBX 11 5 0 1
BITMAP
c600
e700
7380
18c0
0c60
ENDCHAR
STARTCHAR OverTilde
ENCODING 142
SWIDTH 357 0
DWIDTH 9 0
BBX 9 3 0 1
BITMAP
7880
7f00
8f00
ENDCHAR
STARTCHAR OverBar
ENCODING 143
SWIDTH 352 0
DWIDTH 8 0
BBX 8 2 0 1
BITMAP
ff
ff
ENDCHAR
STARTCHAR DblUpDownArrow
ENCODING 144
SWIDTH 726 0
DWIDTH 17 0
BBX 14 23 2 -2
BITMAP
0300
0780
0fc0
1ce0
3870
7878
f87c
1860
1860
1860
1860
1860
1860
1860
1860
1860
f87c
7878
3870
1ce0
0fc0
0780
0300
ENDCHAR
STARTCHAR DblUpExtens1
ENCODING 145
SWIDTH 726 0
DWIDTH 17 0
BBX 8 8 5 0
BITMAP
c3
c3
c3
c3
c3
c3
c3
c3
ENDCHAR
STARTCHAR DblLongLArrow
ENCODING 146
SWIDTH 1426 0
DWIDTH 34 0
BBX 31 14 2 -1
BITMAP
02000000
06000000
0e000000
1ffffffe
3ffffffe
70000000
e0000000
e0000000
70000000
3ffffffe
1ffffffe
0e000000
06000000
02000000
ENDCHAR
STARTCHAR DblExtens
ENCODING 147
SWIDTH 488 0
DWIDTH 12 0
BBX 10 8 1 2
BITMAP
ffc0
ffc0
0000
0000
0000
0000
ffc0
ffc0
ENDCHAR
STARTCHAR DblLongRArrow
ENCODING 148
SWIDTH 1426 0
DWIDTH 34 0
BBX 31 14 1 -1
BITMAP
00000080
000000c0
000000e0
fffffff0
fffffff8
0000001c
0000000e
0000000e
0000001c
fffffff8
fffffff0
000000e0
000000c0
00000080
ENDCHAR
STARTCHAR DblLRArrow2
ENCODING 149
SWIDTH 1165 0
DWIDTH 28 0
BBX 24 14 2 -1
BITMAP
020040
060060
0e0070
1ffff8
3ffffc
70000e
e00007
e00007
70000e
3ffffc
1ffff8
0e0070
060060
020040
ENDCHAR
STARTCHAR DblLongLRArrow
ENCODING 150
SWIDTH 1659 0
DWIDTH 40 0
BBX 36 14 2 -1
BITMAP
0200000400
0600000600
0e00000700
1fffffff80
3fffffffc0
70000000e0
e000000070
e000000070
70000000e0
3fffffffc0
1fffffff80
0e00000700
0600000600
0200000400
ENDCHAR
STARTCHAR UpDownArrow
ENCODING 151
SWIDTH 591 0
DWIDTH 14 0
BBX 12 22 1 0
BITMAP
0600
0f00
1f80
3fc0
76e0
e670
c630
0600
0600
0600
0600
0600
0600
0600
0600
c630
e670
76e0
3fc0
1f80
0f00
0600
ENDCHAR
STARTCHAR LongLArrow
ENCODING 152
SWIDTH 1422 0
DWIDTH 34 0
BBX 32 12 1 0
BITMAP
06000000
0e000000
1c000000
38000000
70000000
ffffffff
ffffffff
70000000
38000000
1c000000
0e000000
06000000
ENDCHAR
STARTCHAR LongRArrow
ENCODING 153
SWIDTH 1430 0
DWIDTH 34 0
BBX 32 12 1 0
BITMAP
00000060
00000070
00000038
0000001c
0000000e
ffffffff
ffffffff
0000000e
0000001c
00000038
00000070
00000060
ENDCHAR
STARTCHAR LongLRArrow
ENCODING 154
SWIDTH 1660 0
DWIDTH 40 0
BBX 37 12 1 0
BITMAP
0600000300
0e00000380
1c000001c0
38000000e0
7000000070
fffffffff8
fffffffff8
7000000070
38000000e0
1c000001c0
0e00000380
0600000300
ENDCHAR
STARTCHAR ColonEqual
ENCODING 155
SWIDTH 916 0
DWIDTH 22 0
BBX 19 12 1 0
BITMAP
600000
f00000
f3ffe0
63ffe0
000000
000000
000000
000000
63ffe0
f3ffe0
f00000
600000
ENDCHAR
STARTCHAR Diamond2
ENCODING 156
SWIDTH 512 0
DWIDTH 12 0
BBX 11 11 1 1
BITMAP
0400
0e00
1f00
3b80
71c0
e0e0
71c0
3b80
1f00
0e00
0400
ENDCHAR
STARTCHAR NotSquareSprsetEqual
ENCODING 157
SWIDTH 697 0
DWIDTH 17 0
BBX 15 17 1 -3
BITMAP
ffe0
fff0
0038
000c
000e
0006
0006
0006
000e
000c
0038
fff0
ffe0
0000
0000
fffc
fffc
ENDCHAR
STARTCHAR AtSign
ENCODING 158
SWIDTH 743 0
DWIDTH 18 0
BBX 16 15 1 -1
BITMAP
03f0
0c08
3806
71f2
6371
c631
ce31
cc61
cc61
cc62
4ce4
6738
3000
1c0c
07f0
ENDCHAR
STARTCHAR Solidmedsqr
ENCODING 159
SWIDTH 519 0
DWIDTH 12 0
BBX 9 9 1 3
BITMAP
ff80
ff80
ff80
ff80
ff80
ff80
ff80
ff80
ff80
ENDCHAR
STARTCHAR OverDot
ENCODING 160
SWIDTH 140 0
DWIDTH 3 0
BBX 4 4 0 1
BITMAP
60
f0
f0
60
ENDCHAR
STARTCHAR CurlyCapUpsilon
ENCODING 161
SWIDTH 671 0
DWIDTH 16 0
BBX 15 16 0 0
BITMAP
f01c
1c26
0e46
064e
078c
0380
0380
0380
0380
0380
0380
0380
0380
0380
0380
0fe0
ENDCHAR
STARTCHAR Prime
ENCODING 162
SWIDTH 373 0
DWIDTH 9 0
BBX 7 10 1 1
BITMAP
0c
1e
1e
3c
38
78
70
60
e0
c0
ENDCHAR
STARTCHAR LessEqual
ENCODING 163
SWIDTH 677 0
DWIDTH 16 0
BBX 14 14 1 0
BITMAP
0004
003c
01f8
0fe0
7f00
f800
7f00
0fe0
01f8
003c
0004
0000
fffc
fffc
ENDCHAR
STARTCHAR Fraction
ENCODING 164
SWIDTH 595 0
DWIDTH 14 0
BBX 14 17 0 -1
BITMAP
001c
0018
0030
0070
00e0
00c0
01c0
0380
0300
0700
0e00
0c00
1c00
3800
3000
6000
e000
ENDCHAR
STARTCHAR Infinity
ENCODING 165
SWIDTH 893 0
DWIDTH 21 0
BBX 19 9 1 1
BITMAP
1e0780
670fc0
4398e0
c1e060
c0e060
c0f060
e3b840
7e1cc0
3c0f00
ENDCHAR
STARTCHAR RuleDelayed
ENCODING 166
SWIDTH 822 0
DWIDTH 20 0
BBX 17 12 1 0
BITMAP
600000
f00800
f01c00
600e00
000700
07ff80
07ff80
000700
600e00
f01c00
f00800
600000
ENDCHAR
STARTCHAR ClubSuit
ENCODING 167
SWIDTH 618 0
DWIDTH 15 0
BBX 13 13 1 0
BITMAP
0700
1fc0
1fc0
1fc0
7ff0
7ff0
fff8
fff8
fff8
7ff0
3ae0
0200
0700
ENDCHAR
STARTCHAR DiamondSuit
ENCODING 168
SWIDTH 587 0
DWIDTH 14 0
BBX 13 15 1 -1
BITMAP
0200
0700
0500
0880
18c0
3060
6030
c018
6030
3060
18c0
0880
0500
0700
0200
ENDCHAR
STARTCHAR HeartSuit
ENCODING 169
SWIDTH 645 0
DWIDTH 15 0
BBX 13 14 1 -1
BITMAP
38e0
7df0
c718
c718
c018
c018
6030
3060
38e0
1dc0
0f80
0700
0200
0200
ENDCHAR
STARTCHAR SpadeSuit
ENCODING 170
SWIDTH 582 0
DWIDTH 14 0
BBX 11 14 1 0
BITMAP
0400
0400
0e00
1f00
3f80
7fc0
7fc0
ffe0
ffe0
ffe0
ffe0
7fc0
0400
0e00
ENDCHAR
STARTCHAR LRArrow
ENCODING 171
SWIDTH 1028 0
DWIDTH 25 0
BBX 22 12 1 0
BITMAP
060180
0e01c0
1c00e0
380070
700038
fffffc
fffffc
700038
380070
1c00e0
0e01c0
060180
ENDCHAR
STARTCHAR LArrow
ENCODING 172
SWIDTH 870 0
DWIDTH 21 0
BBX 18 12 1 0
BITMAP
060000
0e0000
1c0000
380000
700000
ffffc0
ffffc0
700000
380000
1c0000
0e0000
060000
ENDCHAR
STARTCHAR UpArrow
ENCODING 173
SWIDTH 590 0
DWIDTH 14 0
BBX 12 18 1 0
BITMAP
0600
0f00
1f80
3fc0
76e0
e670
c630
0600
0600
0600
0600
0600
0600
0600
0600
0600
0600
0600
ENDCHAR
STARTCHAR RArrow
ENCODING 174
SWIDTH 870 0
DWIDTH 21 0
BBX 18 12 1 0
BITMAP
001800
001c00
000e00
000700
000380
ffffc0
ffffc0
000380
000700
000e00
001c00
001800
ENDCHAR
STARTCHAR DownArrow
ENCODING 175
SWIDTH 590 0
DWIDTH 14 0
BBX 12 18 1 0
BITMAP
0600
0600
0600
0600
0600
0600
0600
0600
0600
0600
0600
c630
e670
76e0
3fc0
1f80
0f00
0600
ENDCHAR
STARTCHAR Degree
ENCODING 176
SWIDTH 404 0
DWIDTH 10 0
BBX 8 8 1 9
BITMAP
3c
7e
e7
c3
c3
e7
7e
3c
ENDCHAR
STARTCHAR PlusMinus
ENCODING 177
SWIDTH 683 0
DWIDTH 16 0
BBX 14 14 1 0
BITMAP
0300
0300
0300
0300
0300
fffc
fffc
0300
0300
0300
0300
0000
fffc
fffc
ENDCHAR
STARTCHAR DoublePrime
ENCODING 178
SWIDTH 651 0
DWIDTH 16 0
BBX 13 10 1 1
BITMAP
0c30
1e78
1e78
3cf0
38e0
79e0
71c0
6180
e300
c300
ENDCHAR
STARTCHAR GreaterEqual
ENCODING 179
SWIDTH 677 0
DWIDTH 16 0
BBX 14 14 1 0
BITMAP
8000
f000
7e00
1fc0
03f8
007c
03f8
1fc0
7e00
f000
8000
0000
fffc
fffc
ENDCHAR
STARTCHAR Multiply
ENCODING 180
SWIDTH 642 0
DWIDTH 15 0
BBX 13 13 1 0
BITMAP
4010
e038
7070
38e0
1dc0
0f80
0700
0f80
1dc0
38e0
7070
e038
4010
ENDCHAR
STARTCHAR Proportional
ENCODING 181
SWIDTH 715 0
DWIDTH 17 0
BBX 15 10 1 0
BITMAP
1e0e
6310
43a0
c1c0
c1c0
c0c0
e1c0
e360
7e62
3c3c
ENDCHAR
STARTCHAR PartialDiff
ENCODING 182
SWIDTH 558 0
DWIDTH 13 0
BBX 12 17 0 0
BITMAP
07c0
0c60
1820
1c30
0030
0030
07b0
1cf0
3870
7070
7060
e060
e0e0
e0c0
e180
7300
3e00
ENDCHAR
STARTCHAR Bullet
ENCODING 183
SWIDTH 354 0
DWIDTH 9 0
BBX 7 6 1 4
BITMAP
38
fe
fe
fe
fe
38
ENDCHAR
STARTCHAR Divide
ENCODING 184
SWIDTH 676 0
DWIDTH 16 0
BBX 14 15 1 -2
BITMAP
0300
0780
0780
0300
0000
0000
fffc
fffc
0000
0000
0000
0300
0780
0780
0300
ENDCHAR
STARTCHAR NotEqual
ENCODING 185
SWIDTH 677 0
DWIDTH 16 0
BBX 14 16 1 -2
BITMAP
00c0
01c0
0180
0180
fffc
fffc
0300
0300
0600
0600
fffc
fffc
0c00
0c00
1c00
1800
ENDCHAR
STARTCHAR Equivalence
ENCODING 186
SWIDTH 677 0
DWIDTH 16 0
BBX 14 12 1 0
BITMAP
fffc
fffc
0000
0000
0000
fffc
fffc
0000
0000
0000
fffc
fffc
ENDCHAR
STARTCHAR Approxequal
ENCODING 187
SWIDTH 667 0
DWIDTH 16 0
BBX 14 11 1 0
BITMAP
3c04
7e0c
678c
c1f8
80f0
0000
3c04
7e0c
678c
c1f8
80f0
ENDCHAR
STARTCHAR Ellipsis
ENCODING 188
SWIDTH 1000 0
DWIDTH 24 0
BBX 20 4 2 0
BITMAP
606060
f0f0f0
f0f0f0
606060
ENDCHAR
STARTCHAR ArrowVertEx
ENCODING 189
SWIDTH 590 0
DWIDTH 14 0
BBX 2 8 6 0
BITMAP
c0
c0
c0
c0
c0
c0
c0
c0
ENDCHAR
STARTCHAR ArrowHorizEx
ENCODING 190
SWIDTH 364 0
DWIDTH 9 0
BBX 9 2 0 5
BITMAP
ff80
ff80
ENDCHAR
STARTCHAR CarriageReturn
ENCODING 191
SWIDTH 628 0
DWIDTH 15 0
BBX 13 16 1 0
BITMAP
0008
0008
0008
0008
0008
0408
0808
1008
2008
4008
fff8
4000
2000
1000
0800
0400
ENDCHAR
STARTCHAR Aleph
ENCODING 192
SWIDTH 666 0
DWIDTH 16 0
BBX 14 17 1 0
BITMAP
2010
6070
f078
f87c
fc3c
7e48
3f40
1f80
2fc0
47e0
43f0
e1f8
e0f8
f078
7078
7030
6020
ENDCHAR
STARTCHAR IFraktur
ENCODING 193
SWIDTH 355 0
DWIDTH 9 0
BBX 7 18 1 -1
BITMAP
fe
1c
08
38
38
38
38
38
38
38
38
38
38
38
30
38
7e
1c
ENDCHAR
STARTCHAR RFraktur
ENCODING 194
SWIDTH 727 0
DWIDTH 17 0
BBX 16 17 1 0
BITMAP
0fe0
3ff8
cc3c
1c1c
1c1c
1c1c
1c38
1ce0
1ff0
1c70
1c70
1c38
1c38
183c
381e
7f1f
1c0c
ENDCHAR
STARTCHAR Weierstrass
ENCODING 195
SWIDTH 666 0
DWIDTH 16 0
BBX 14 17 1 -5
BITMAP
0070
0cf8
393c
721c
e41c
e41c
e81c
f318
7738
7c30
7c60
5fc0
9c00
8c00
8c00
cc00
7800
ENDCHAR
STARTCHAR CircleMultiply
ENCODING 196
SWIDTH 835 0
DWIDTH 20 0
BBX 17 17 1 -2
BITMAP
03e000
0ff800
3c1c00
380e00
7c1f00
6e3b00
c77180
c3e180
c1c180
c3e180
c77180
6e3b00
7c1f00
380e00
1c1c00
0ff800
03e000
ENDCHAR
STARTCHAR CirclePlus
ENCODING 197
SWIDTH 835 0
DWIDTH 20 0
BBX 17 17 1 -2
BITMAP
03e000
0ff800
399c00
318600
618300
618300
c18180
ffff80
ffff80
c18180
c18180
618300
618700
318e00
1d9c00
0ff800
03e000
ENDCHAR
STARTCHAR EmptySet
ENCODING 198
SWIDTH 764 0
DWIDTH 18 0
BBX 17 22 0 -3
BITMAP
003800
003000
07f000
1c7c00
387e00
706600
70e700
e0e300
e0c380
e0c380
e1c380
e18380
e18380
e38380
738700
730600
3b0e00
1f1800
07e000
060000
0e0000
0e0000
ENDCHAR
STARTCHAR Union
ENCODING 199
SWIDTH 747 0
DWIDTH 18 0
BBX 14 17 2 0
BITMAP
c00c
c00c
c00c
c00c
c00c
c00c
c00c
c00c
c00c
c00c
c00c
c00c
c01c
6018
3870
1fe0
0fc0
ENDCHAR
STARTCHAR Intersection
ENCODING 200
SWIDTH 747 0
DWIDTH 18 0
BBX 14 17 2 0
BITMAP
0fc0
1fe0
3870
6018
c01c
c00c
c00c
c00c
c00c
c00c
c00c
c00c
c00c
c00c
c00c
c00c
c00c
ENDCHAR
STARTCHAR ProperSuperset
ENCODING 201
SWIDTH 697 0
DWIDTH 17 0
BBX 15 13 1 -1
BITMAP
ffe0
fff0
0038
000c
000e
0006
0006
0006
000e
000c
0038
fff0
ffe0
ENDCHAR
STARTCHAR NbSpace
ENCODING 202
SWIDTH 189 0
DWIDTH 5 0
BBX 0 0 0 0
BITMAP
ENDCHAR
STARTCHAR NotSubset
ENCODING 203
SWIDTH 697 0
DWIDTH 17 0
BBX 15 19 1 -4
BITMAP
0030
0070
0060
07fe
1ffe
38c0
60c0
e0c0
c180
c180
c180
e300
7300
3b00
1ffe
07fe
0600
0e00
0c00
ENDCHAR
STARTCHAR ProperSubset
ENCODING 204
SWIDTH 697 0
DWIDTH 17 0
BBX 15 13 1 -1
BITMAP
0ffe
1ffe
3800
6000
e000
c000
c000
c000
e000
6000
3800
1ffe
0ffe
ENDCHAR
STARTCHAR ReflexSubset
ENCODING 205
SWIDTH 697 0
DWIDTH 17 0
BBX 15 17 1 -3
BITMAP
0ffe
1ffe
3800
6000
e000
c000
c000
c000
e000
6000
3800
1ffe
0ffe
0000
0000
7ffe
7ffe
ENDCHAR
STARTCHAR Element
ENCODING 206
SWIDTH 697 0
DWIDTH 17 0
BBX 15 13 1 -1
BITMAP
0ffe
1ffe
3000
6000
c000
fffe
fffe
c000
e000
6000
3800
1ffe
0ffe
ENDCHAR
STARTCHAR NotElement
ENCODING 207
SWIDTH 697 0
DWIDTH 17 0
BBX 15 19 1 -4
BITMAP
0030
0030
0060
07fe
1ffe
38c0
60c0
c0c0
fffe
fffe
c180
e300
7300
3b00
1ffe
07fe
0600
0e00
0c00
ENDCHAR
STARTCHAR Angle
ENCODING 208
SWIDTH 512 0
DWIDTH 12 0
BBX 10 13 1 0
BITMAP
0c00
0c00
1800
1800
1800
3000
3000
3000
6000
6000
6000
ffc0
ffc0
ENDCHAR
STARTCHAR Gradient
ENCODING 209
SWIDTH 719 0
DWIDTH 17 0
BBX 16 16 1 0
BITMAP
ffff
7ffe
7802
3804
3c04
1c04
1e08
0e08
0f10
0710
07a0
03a0
03e0
01c0
01c0
0080
ENDCHAR
STARTCHAR RegTM
ENCODING 210
SWIDTH 786 0
DWIDTH 19 0
BBX 17 17 1 0
BITMAP
03e000
0ff800
1c1e00
300600
6fe300
663300
c63180
c62180
c7c180
c66180
c67180
6f3b00
600300
300600
3c1e00
0ff800
03e000
ENDCHAR
STARTCHAR Copyright
ENCODING 211
SWIDTH 786 0
DWIDTH 19 0
BBX 17 17 1 0
BITMAP
03e000
0ff800
1c1e00
300600
61e300
663300
cc1180
cc0180
cc0180
cc0180
cc0180
661300
63e300
300600
3c1e00
0ff800
03e000
ENDCHAR
STARTCHAR TM
ENCODING 212
SWIDTH 1110 0
DWIDTH 27 0
BBX 24 10 2 7
BITMAP
ff3c0f
991e0e
181e1e
181716
181736
181326
1813e6
1811c6
1811c6
3c388f
ENDCHAR
STARTCHAR Product
ENCODING 213
SWIDTH 801 0
DWIDTH 19 0
BBX 15 19 2 0
BITMAP
fffe
701c
701c
701c
701c
701c
701c
701c
701c
701c
701c
701c
701c
701c
701c
701c
701c
701c
f83e
ENDCHAR
STARTCHAR Radical
ENCODING 214
SWIDTH 813 0
DWIDTH 20 0
BBX 17 20 1 -4
BITMAP
000180
000300
000300
000300
000600
040600
1c0600
7e0c00
ce0c00
0f0c00
071800
079800
039800
03f000
01f000
01f000
00e000
00e000
006000
004000
ENDCHAR
STARTCHAR DotMath
ENCODING 215
SWIDTH 279 0
DWIDTH 7 0
BBX 4 4 1 4
BITMAP
60
f0
f0
60
ENDCHAR
STARTCHAR LogicalNot
ENCODING 216
SWIDTH 680 0
DWIDTH 16 0
BBX 13 7 1 2
BITMAP
fff8
fff8
0018
0018
0018
0018
0018
ENDCHAR
STARTCHAR Wedge
ENCODING 217
SWIDTH 669 0
DWIDTH 16 0
BBX 15 16 1 0
BITMAP
0100
0380
0380
07c0
06c0
06c0
0c60
0c60
1c70
1830
3838
3018
3018
701c
600c
e00e
ENDCHAR
STARTCHAR Vee
ENCODING 218
SWIDTH 669 0
DWIDTH 16 0
BBX 15 16 1 0
BITMAP
e00e
600c
701c
3018
3018
3838
1830
1c70
0c60
0c60
06c0
06c0
07c0
0380
0380
0100
ENDCHAR
STARTCHAR DblLRArrow
ENCODING 219
SWIDTH 1165 0
DWIDTH 28 0
BBX 24 14 2 -1
BITMAP
020040
060060
0e0070
1ffff8
3ffffc
70000e
e00007
e00007
70000e
3ffffc
1ffff8
0e0070
060060
020040
ENDCHAR
STARTCHAR DblLArrow
ENCODING 220
SWIDTH 870 0
DWIDTH 21 0
BBX 18 14 2 -1
BITMAP
020000
060000
0e0000
1fffc0
3fffc0
700000
e00000
e00000
700000
3fffc0
1fffc0
0e0000
060000
020000
ENDCHAR
STARTCHAR DblUpArrow
ENCODING 221
SWIDTH 726 0
DWIDTH 17 0
BBX 14 17 2 0
BITMAP
0300
0780
0fc0
1ce0
3870
7878
f87c
1860
1860
1860
1860
1860
1860
1860
1860
1860
1860
ENDCHAR
STARTCHAR DblRArrow
ENCODING 222
SWIDTH 870 0
DWIDTH 21 0
BBX 18 14 1 -1
BITMAP
001000
001800
001c00
fffe00
ffff00
000380
0001c0
0001c0
000380
ffff00
fffe00
001c00
001800
001000
ENDCHAR
STARTCHAR DblDownArrow
ENCODING 223
SWIDTH 726 0
DWIDTH 17 0
BBX 14 17 2 1
BITMAP
1860
1860
1860
1860
1860
1860
1860
1860
1860
1860
f87c
7878
3870
1ce0
0fc0
0780
0300
ENDCHAR
STARTCHAR Lozenge
ENCODING 224
SWIDTH 512 0
DWIDTH 12 0
BBX 11 11 1 1
BITMAP
0400
0e00
1f00
3b80
71c0
e0e0
71c0
3b80
1f00
0e00
0400
ENDCHAR
STARTCHAR LAngle
ENCODING 225
SWIDTH 398 0
DWIDTH 10 0
BBX 7 20 1 -4
BITMAP
06
0c
0c
18
18
30
30
60
60
c0
c0
60
60
30
30
18
18
0c
0c
06
ENDCHAR
STARTCHAR Diffd
ENCODING 226
SWIDTH 653 0
DWIDTH 16 0
BBX 17 16 0 0
BITMAP
000f80
003d00
001d00
001d00
003a00
07ba00
0e7a00
387a00
387400
707400
707400
e0f400
e0e800
e1ea00
e2ec00
7cf800
ENDCHAR
STARTCHAR Expe
ENCODING 227
SWIDTH 572 0
DWIDTH 14 0
BBX 12 11 1 0
BITMAP
07e0
1b30
2e30
4c60
5dc0
bf00
b800
b800
b820
7cc0
3f00
ENDCHAR
STARTCHAR Imagi
ENCODING 228
SWIDTH 366 0
DWIDTH 9 0
BBX 8 17 1 0
BITMAP
1c
1c
1c
00
00
00
3e
f2
72
74
74
74
e4
e8
eb
ee
f8
ENDCHAR
STARTCHAR Sum
ENCODING 229
SWIDTH 749 0
DWIDTH 18 0
BBX 14 17 2 0
BITMAP
7ff8
3818
1c18
1c08
0e00
0600
0700
0380
0180
0300
0200
0404
0804
180c
3ffc
7ffc
fffc
ENDCHAR
STARTCHAR LParenTop
ENCODING 230
SWIDTH 421 0
DWIDTH 10 0
BBX 8 21 1 -2
BITMAP
01
02
04
0c
18
18
30
30
70
70
60
60
e0
e0
e0
e0
e0
e0
e0
e0
e0
ENDCHAR
STARTCHAR LParenEx
ENCODING 231
SWIDTH 421 0
DWIDTH 10 0
BBX 3 9 1 -1
BITMAP
e0
e0
e0
e0
e0
e0
e0
e0
e0
ENDCHAR
STARTCHAR LParenBot
ENCODING 232
SWIDTH 421 0
DWIDTH 10 0
BBX 8 21 1 0
BITMAP
e0
e0
e0
e0
e0
e0
e0
e0
60
60
60
70
70
30
30
18
18
0c
04
02
01
ENDCHAR
STARTCHAR LBracketTop
ENCODING 233
SWIDTH 389 0
DWIDTH 9 0
BBX 6 5 2 -1
BITMAP
fc
e0
e0
e0
e0
ENDCHAR
STARTCHAR LBracketEx
ENCODING 234
SWIDTH 389 0
DWIDTH 9 0
BBX 3 9 2 -1
BITMAP
e0
e0
e0
e0
e0
e0
e0
e0
e0
ENDCHAR
STARTCHAR LBracketBot
ENCODING 235
SWIDTH 389 0
DWIDTH 9 0
BBX 6 4 2 0
BITMAP
e0
e0
e0
fc
ENDCHAR
STARTCHAR LBraceTop
ENCODING 236
SWIDTH 597 0
DWIDTH 14 0
BBX 8 17 6 -2
BITMAP
03
04
08
18
30
30
70
70
60
e0
e0
e0
e0
e0
e0
e0
e0
ENDCHAR
STARTCHAR LBraceMid
ENCODING 237
SWIDTH 597 0
DWIDTH 14 0
BBX 7 18 2 -3
BITMAP
0e
0e
0e
0e
0c
1c
1c
38
70
e0
70
38
1c
1c
0e
0e
0e
0e
ENDCHAR
STARTCHAR LBraceBot
ENCODING 238
SWIDTH 597 0
DWIDTH 14 0
BBX 8 17 6 0
BITMAP
e0
e0
e0
e0
e0
e0
e0
60
60
70
70
30
30
18
08
04
03
ENDCHAR
STARTCHAR BraceEx
ENCODING 239
SWIDTH 597 0
DWIDTH 14 0
BBX 3 9 6 -1
BITMAP
e0
e0
e0
e0
e0
e0
e0
e0
e0
ENDCHAR
STARTCHAR Slot
ENCODING 240
SWIDTH 710 0
DWIDTH 17 0
BBX 16 17 0 0
BITMAP
1818
1818
1818
ffff
ffff
1818
1818
1818
1818
1818
1818
ffff
ffff
1818
1818
1818
1818
ENDCHAR
STARTCHAR RAngle
ENCODING 241
SWIDTH 398 0
DWIDTH 10 0
BBX 7 20 2 -4
BITMAP
c0
e0
60
70
30
38
18
1c
0c
06
06
0c
0c
18
18
30
30
60
60
c0
ENDCHAR
STARTCHAR Intergral
ENCODING 242
SWIDTH 702 0
DWIDTH 17 0
BBX 13 25 2 -3
BITMAP
00f0
01b8
0398
0300
0300
0700
0700
0700
0700
0700
0700
0700
0700
0700
0700
0700
0700
0700
0700
0700
0600
0600
ce00
ec00
7800
ENDCHAR
STARTCHAR IntegralTop
ENCODING 243
SWIDTH 1013 0
DWIDTH 24 0
BBX 20 24 2 -2
BITMAP
0001f0
0001f0
0001f0
0001f0
0001f0
0001f0
0001f0
0001f0
0001e0
0001e0
0001e0
0003e0
0003e0
0003c0
0003c0
0003c0
000780
000780
e00700
f00f00
f80e00
f81c00
7c7000
1fc000
ENDCHAR
STARTCHAR IntegralEx
ENCODING 244
SWIDTH 1013 0
DWIDTH 24 0
BBX 5 16 17 -1
BITMAP
f8
f8
f8
f8
f8
f8
f8
f8
f8
f8
f8
f8
f8
f8
f8
f8
ENDCHAR
STARTCHAR IntegralBot
ENCODING 245
SWIDTH 1013 0
DWIDTH 24 0
BBX 20 24 17 -2
BITMAP
003f80
00e3e0
0381f0
0701f0
0f00f0
0e0070
1e0000
1e0000
3c0000
3c0000
3c0000
7c0000
7c0000
780000
780000
780000
f80000
f80000
f80000
f80000
f80000
f80000
f80000
f80000
ENDCHAR
STARTCHAR RParenTop
ENCODING 246
SWIDTH 421 0
DWIDTH 10 0
BBX 8 21 1 -2
BITMAP
80
40
20
10
18
18
0c
0c
0e
0e
06
06
07
07
07
07
07
07
07
07
07
ENDCHAR
STARTCHAR RParenEx
ENCODING 247
SWIDTH 421 0
DWIDTH 10 0
BBX 3 9 6 -1
BITMAP
e0
e0
e0
e0
e0
e0
e0
e0
e0
ENDCHAR
STARTCHAR RParenBot
ENCODING 248
SWIDTH 421 0
DWIDTH 10 0
BBX 8 21 1 0
BITMAP
07
07
07
07
07
07
07
07
07
06
06
0e
0e
0c
0c
18
18
10
20
40
80
ENDCHAR
STARTCHAR RBracketTop
ENCODING 249
SWIDTH 389 0
DWIDTH 9 0
BBX 6 5 1 -1
BITMAP
fc
1c
1c
1c
1c
ENDCHAR
STARTCHAR RBracketEx
ENCODING 250
SWIDTH 389 0
DWIDTH 9 0
BBX 3 9 4 -1
BITMAP
e0
e0
e0
e0
e0
e0
e0
e0
e0
ENDCHAR
STARTCHAR RBracketBot
ENCODING 251
SWIDTH 389 0
DWIDTH 9 0
BBX 6 4 1 0
BITMAP
1c
1c
1c
fc
ENDCHAR
STARTCHAR RBraceTop
ENCODING 252
SWIDTH 597 0
DWIDTH 14 0
BBX 8 17 1 -2
BITMAP
c0
20
10
18
0c
0c
0e
06
06
06
07
07
07
07
07
07
07
ENDCHAR
STARTCHAR RBraceMid
ENCODING 253
SWIDTH 597 0
DWIDTH 14 0
BBX 7 18 6 -3
BITMAP
e0
e0
e0
e0
60
70
70
38
1c
0e
1c
38
70
70
e0
e0
e0
e0
ENDCHAR
STARTCHAR RBraceBot
ENCODING 254
SWIDTH 597 0
DWIDTH 14 0
BBX 8 17 1 0
BITMAP
07
07
07
07
07
07
07
06
06
06
0e
0c
0c
18
10
20
c0
ENDCHAR
STARTCHAR Wolf
ENCODING 255
SWIDTH 965 0
DWIDTH 23 0
BBX 21 21 0 -5
BITMAP
004200
004600
006c00
007c00
00f400
00f400
00dc00
018c00
018400
018200
033100
033c80
060640
060020
0ec010
0dfff8
1c2000
386000
386000
706000
e07000
ENDCHAR
ENDFONT
